REM DIRINDEX 1\6,1\2\7,1\2\8,1\2\9,1\3\10,1\3\11,1\4\12,1\4\13,1\4\14,1\5\15,1\5\16,1\5\17
REM DIRNAME folder01,folder02,folder03,folder04,folder05,folder06,folder07,folder08,folder09,folder10,folder11,folder12,folder13,folder14,folder15,folder16,folder17
TITLE ""
FILE "P2Q_t2_0997-1014.mp3" MP3
  TRACK 01 AUDIO
    TITLE "7:cjc040_6825"
    INDEX 01 00:00:00
  TRACK 02 AUDIO
    TITLE "0:"
    INDEX 01 00:00:70
  TRACK 03 AUDIO
    TITLE "8:cjc040_6826"
    INDEX 01 00:01:54
  TRACK 04 AUDIO
    TITLE "0:"
    INDEX 01 00:05:24
  TRACK 05 AUDIO
    TITLE "9:cjc040_6827"
    INDEX 01 00:06:02
  TRACK 06 AUDIO
    TITLE "0:"
    INDEX 01 00:07:21
  TRACK 07 AUDIO
    TITLE "7:cjc040_6828"
    INDEX 01 00:09:00
  TRACK 08 AUDIO
    TITLE "0:"
    INDEX 01 00:10:12
  TRACK 09 AUDIO
    TITLE "8:cjc040_6829"
    INDEX 01 00:10:70
  TRACK 10 AUDIO
    TITLE "0:"
    INDEX 01 00:13:39
  TRACK 11 AUDIO
    TITLE "9:cjc040_6830"
    INDEX 01 00:14:21
  TRACK 12 AUDIO
    TITLE "0:"
    INDEX 01 00:15:40
  TRACK 13 AUDIO
    TITLE "7:cjc040_6831"
    INDEX 01 00:17:20
  TRACK 14 AUDIO
    TITLE "0:"
    INDEX 01 00:18:33
  TRACK 15 AUDIO
    TITLE "8:cjc040_6832"
    INDEX 01 00:19:09
  TRACK 16 AUDIO
    TITLE "0:"
    INDEX 01 00:20:45
  TRACK 17 AUDIO
    TITLE "9:cjc040_6833"
    INDEX 01 00:21:21
  TRACK 18 AUDIO
    TITLE "0:"
    INDEX 01 00:22:34
  TRACK 19 AUDIO
    TITLE "7:cjc040_6834"
    INDEX 01 00:24:18
  TRACK 20 AUDIO
    TITLE "0:"
    INDEX 01 00:25:27
  TRACK 21 AUDIO
    TITLE "8:cjc040_6835"
    INDEX 01 00:26:07
  TRACK 22 AUDIO
    TITLE "0:"
    INDEX 01 00:28:25
  TRACK 23 AUDIO
    TITLE "9:cjc040_6836"
    INDEX 01 00:29:07
  TRACK 24 AUDIO
    TITLE "0:"
    INDEX 01 00:30:18
  TRACK 25 AUDIO
    TITLE "7:cjc040_6837"
    INDEX 01 00:32:03
  TRACK 26 AUDIO
    TITLE "0:"
    INDEX 01 00:33:28
  TRACK 27 AUDIO
    TITLE "8:cjc040_6838"
    INDEX 01 00:34:06
  TRACK 28 AUDIO
    TITLE "0:"
    INDEX 01 00:36:64
  TRACK 29 AUDIO
    TITLE "9:cjc040_6839"
    INDEX 01 00:37:44
  TRACK 30 AUDIO
    TITLE "0:"
    INDEX 01 00:38:67
  TRACK 31 AUDIO
    TITLE "7:cjc040_6840"
    INDEX 01 00:40:46
  TRACK 32 AUDIO
    TITLE "0:"
    INDEX 01 00:41:67
  TRACK 33 AUDIO
    TITLE "8:cjc040_6841"
    INDEX 01 00:42:47
  TRACK 34 AUDIO
    TITLE "0:"
    INDEX 01 00:45:45
  TRACK 35 AUDIO
    TITLE "9:cjc040_6842"
    INDEX 01 00:46:19
  TRACK 36 AUDIO
    TITLE "0:"
    INDEX 01 00:47:42
  TRACK 37 AUDIO
    TITLE "7:cjc040_6843"
    INDEX 01 00:49:21
  TRACK 38 AUDIO
    TITLE "0:"
    INDEX 01 00:50:33
  TRACK 39 AUDIO
    TITLE "8:cjc040_6844"
    INDEX 01 00:51:13
  TRACK 40 AUDIO
    TITLE "0:"
    INDEX 01 00:54:25
  TRACK 41 AUDIO
    TITLE "9:cjc040_6845"
    INDEX 01 00:55:04
  TRACK 42 AUDIO
    TITLE "0:"
    INDEX 01 00:56:18
  TRACK 43 AUDIO
    TITLE "7:cjc040_6846"
    INDEX 01 00:57:74
  TRACK 44 AUDIO
    TITLE "0:"
    INDEX 01 00:59:06
  TRACK 45 AUDIO
    TITLE "8:cjc040_6847"
    INDEX 01 00:59:63
  TRACK 46 AUDIO
    TITLE "0:"
    INDEX 01 01:01:21
  TRACK 47 AUDIO
    TITLE "9:cjc040_6848"
    INDEX 01 01:02:01
  TRACK 48 AUDIO
    TITLE "0:"
    INDEX 01 01:03:12
  TRACK 49 AUDIO
    TITLE "7:cjc040_6849"
    INDEX 01 01:04:68
  TRACK 50 AUDIO
    TITLE "0:"
    INDEX 01 01:06:12
  TRACK 51 AUDIO
    TITLE "8:cjc040_6850"
    INDEX 01 01:06:65
  TRACK 52 AUDIO
    TITLE "0:"
    INDEX 01 01:09:03
  TRACK 53 AUDIO
    TITLE "9:cjc040_6851"
    INDEX 01 01:09:57
  TRACK 54 AUDIO
    TITLE "0:"
    INDEX 01 01:11:05
  TRACK 55 AUDIO
    TITLE "7:cjc040_6852"
    INDEX 01 01:12:66
  TRACK 56 AUDIO
    TITLE "0:"
    INDEX 01 01:14:12
  TRACK 57 AUDIO
    TITLE "8:cjc040_6853"
    INDEX 01 01:14:65
  TRACK 58 AUDIO
    TITLE "0:"
    INDEX 01 01:17:49
  TRACK 59 AUDIO
    TITLE "9:cjc040_6854"
    INDEX 01 01:18:31
  TRACK 60 AUDIO
    TITLE "0:"
    INDEX 01 01:19:48
  TRACK 61 AUDIO
    TITLE "7:cjc040_6855"
    INDEX 01 01:21:31
  TRACK 62 AUDIO
    TITLE "0:"
    INDEX 01 01:22:41
  TRACK 63 AUDIO
    TITLE "8:cjc040_6856"
    INDEX 01 01:23:18
  TRACK 64 AUDIO
    TITLE "0:"
    INDEX 01 01:25:60
  TRACK 65 AUDIO
    TITLE "9:cjc040_6857"
    INDEX 01 01:26:34
  TRACK 66 AUDIO
    TITLE "0:"
    INDEX 01 01:27:42
  TRACK 67 AUDIO
    TITLE "7:cjc040_6858"
    INDEX 01 01:29:25
  TRACK 68 AUDIO
    TITLE "0:"
    INDEX 01 01:30:24
  TRACK 69 AUDIO
    TITLE "8:cjc040_6859"
    INDEX 01 01:31:10
  TRACK 70 AUDIO
    TITLE "0:"
    INDEX 01 01:32:51
  TRACK 71 AUDIO
    TITLE "9:cjc040_6860"
    INDEX 01 01:33:33
  TRACK 72 AUDIO
    TITLE "0:"
    INDEX 01 01:34:36
  TRACK 73 AUDIO
    TITLE "7:cjc040_6861"
    INDEX 01 01:36:25
  TRACK 74 AUDIO
    TITLE "0:"
    INDEX 01 01:37:48
  TRACK 75 AUDIO
    TITLE "8:cjc040_6862"
    INDEX 01 01:38:22
  TRACK 76 AUDIO
    TITLE "0:"
    INDEX 01 01:41:30
  TRACK 77 AUDIO
    TITLE "9:cjc040_6863"
    INDEX 01 01:42:04
  TRACK 78 AUDIO
    TITLE "0:"
    INDEX 01 01:43:27
  TRACK 79 AUDIO
    TITLE "7:cjc040_6864"
    INDEX 01 01:45:08
  TRACK 80 AUDIO
    TITLE "0:"
    INDEX 01 01:46:37
  TRACK 81 AUDIO
    TITLE "8:cjc040_6865"
    INDEX 01 01:47:13
  TRACK 82 AUDIO
    TITLE "0:"
    INDEX 01 01:49:32
  TRACK 83 AUDIO
    TITLE "9:cjc040_6866"
    INDEX 01 01:50:11
  TRACK 84 AUDIO
    TITLE "0:"
    INDEX 01 01:51:42
  TRACK 85 AUDIO
    TITLE "7:cjc040_6867"
    INDEX 01 01:53:21
  TRACK 86 AUDIO
    TITLE "0:"
    INDEX 01 01:54:33
  TRACK 87 AUDIO
    TITLE "8:cjc040_6868"
    INDEX 01 01:55:11
  TRACK 88 AUDIO
    TITLE "0:"
    INDEX 01 01:57:19
  TRACK 89 AUDIO
    TITLE "9:cjc040_6869"
    INDEX 01 01:57:70
  TRACK 90 AUDIO
    TITLE "0:"
    INDEX 01 01:59:08
  TRACK 91 AUDIO
    TITLE "7:cjc040_6870"
    INDEX 01 02:00:67
  TRACK 92 AUDIO
    TITLE "0:"
    INDEX 01 02:02:07
  TRACK 93 AUDIO
    TITLE "8:cjc040_6871"
    INDEX 01 02:02:62
  TRACK 94 AUDIO
    TITLE "0:"
    INDEX 01 02:06:28
  TRACK 95 AUDIO
    TITLE "9:cjc040_6872"
    INDEX 01 02:07:04
  TRACK 96 AUDIO
    TITLE "0:"
    INDEX 01 02:08:19
  TRACK 97 AUDIO
    TITLE "7:cjc040_6873"
    INDEX 01 02:10:02
  TRACK 98 AUDIO
    TITLE "0:"
    INDEX 01 02:11:33
  TRACK 99 AUDIO
    TITLE "8:cjc040_6874"
    INDEX 01 02:12:09
  TRACK 100 AUDIO
    TITLE "0:"
    INDEX 01 02:13:48
  TRACK 101 AUDIO
    TITLE "9:cjc040_6875"
    INDEX 01 02:14:28
  TRACK 102 AUDIO
    TITLE "0:"
    INDEX 01 02:15:60
  TRACK 103 AUDIO
    TITLE "7:cjc040_6876"
    INDEX 01 02:17:38
  TRACK 104 AUDIO
    TITLE "0:"
    INDEX 01 02:18:37
  TRACK 105 AUDIO
    TITLE "8:cjc040_6877"
    INDEX 01 02:19:23
  TRACK 106 AUDIO
    TITLE "0:"
    INDEX 01 02:21:45
  TRACK 107 AUDIO
    TITLE "9:cjc040_6878"
    INDEX 01 02:22:23
  TRACK 108 AUDIO
    TITLE "0:"
    INDEX 01 02:23:27
